solid OpenSCAD_Model
  facet normal -0.809015 -0.587787 0
    outer loop
      vertex -2.99265 -1.32889 -5
      vertex -3.39594 -0.773812 -2.5
      vertex -3.39594 -0.773812 -5
    endloop
  endfacet
  facet normal -0.809015 -0.587787 0
    outer loop
      vertex -3.39594 -0.773812 -2.5
      vertex -2.99265 -1.32889 -5
      vertex -2.99265 -1.32889 -2.5
    endloop
  endfacet
  facet normal -0.978147 -0.207913 0
    outer loop
      vertex -2.85 -2 -5
      vertex -2.99265 -1.32889 -2.5
      vertex -2.99265 -1.32889 -5
    endloop
  endfacet
  facet normal -0.978147 -0.207913 0
    outer loop
      vertex -2.99265 -1.32889 -2.5
      vertex -2.85 -2 -5
      vertex -2.85 -2 -2.5
    endloop
  endfacet
  facet normal -0.500005 -0.866022 0
    outer loop
      vertex -3.99012 -0.430757 -5
      vertex -3.39594 -0.773812 -2.5
      vertex -3.99012 -0.430757 -2.5
    endloop
  endfacet
  facet normal -0.500005 -0.866022 -0
    outer loop
      vertex -3.39594 -0.773812 -2.5
      vertex -3.99012 -0.430757 -5
      vertex -3.39594 -0.773812 -5
    endloop
  endfacet
  facet normal -0.104527 -0.994522 0
    outer loop
      vertex -4.67247 -0.35904 -5
      vertex -3.99012 -0.430757 -2.5
      vertex -4.67247 -0.35904 -2.5
    endloop
  endfacet
  facet normal -0.104527 -0.994522 -0
    outer loop
      vertex -3.99012 -0.430757 -2.5
      vertex -4.67247 -0.35904 -5
      vertex -3.99012 -0.430757 -5
    endloop
  endfacet
  facet normal 0.669124 0.743151 -0
    outer loop
      vertex -5.325 -3.42894 -5
      vertex -5.83488 -2.96985 -2.5
      vertex -5.325 -3.42894 -2.5
    endloop
  endfacet
  facet normal 0.669124 0.743151 0
    outer loop
      vertex -5.83488 -2.96985 -2.5
      vertex -5.325 -3.42894 -5
      vertex -5.83488 -2.96985 -5
    endloop
  endfacet
  facet normal 0.669125 -0.74315 0
    outer loop
      vertex -5.83488 -1.03015 -5
      vertex -5.325 -0.571059 -2.5
      vertex -5.83488 -1.03015 -2.5
    endloop
  endfacet
  facet normal 0.669125 -0.74315 0
    outer loop
      vertex -5.325 -0.571059 -2.5
      vertex -5.83488 -1.03015 -5
      vertex -5.325 -0.571059 -5
    endloop
  endfacet
  facet normal 0.913548 0.406731 0
    outer loop
      vertex -5.83488 -2.96985 -2.5
      vertex -6.11394 -2.34306 -5
      vertex -6.11394 -2.34306 -2.5
    endloop
  endfacet
  facet normal 0.913548 0.406731 0
    outer loop
      vertex -6.11394 -2.34306 -5
      vertex -5.83488 -2.96985 -2.5
      vertex -5.83488 -2.96985 -5
    endloop
  endfacet
  facet normal -0.809011 0.587793 0
    outer loop
      vertex -3.39594 -3.22619 -5
      vertex -2.99265 -2.67112 -2.5
      vertex -2.99265 -2.67112 -5
    endloop
  endfacet
  facet normal -0.809011 0.587793 0
    outer loop
      vertex -2.99265 -2.67112 -2.5
      vertex -3.39594 -3.22619 -5
      vertex -3.39594 -3.22619 -2.5
    endloop
  endfacet
  facet normal -0.5 0.866025 0
    outer loop
      vertex -3.39594 -3.22619 -5
      vertex -3.99012 -3.56924 -2.5
      vertex -3.39594 -3.22619 -2.5
    endloop
  endfacet
  facet normal -0.5 0.866025 0
    outer loop
      vertex -3.99012 -3.56924 -2.5
      vertex -3.39594 -3.22619 -5
      vertex -3.99012 -3.56924 -5
    endloop
  endfacet
  facet normal 1 -0 0
    outer loop
      vertex -6.11394 -2.34306 -2.5
      vertex -6.11394 -1.65695 -5
      vertex -6.11394 -1.65695 -2.5
    endloop
  endfacet
  facet normal 1 0 0
    outer loop
      vertex -6.11394 -1.65695 -5
      vertex -6.11394 -2.34306 -2.5
      vertex -6.11394 -2.34306 -5
    endloop
  endfacet
  facet normal -0.104532 0.994522 0
    outer loop
      vertex -3.99012 -3.56924 -5
      vertex -4.67247 -3.64096 -2.5
      vertex -3.99012 -3.56924 -2.5
    endloop
  endfacet
  facet normal -0.104532 0.994522 0
    outer loop
      vertex -4.67247 -3.64096 -2.5
      vertex -3.99012 -3.56924 -5
      vertex -4.67247 -3.64096 -5
    endloop
  endfacet
  facet normal -0.978148 0.20791 0
    outer loop
      vertex -2.99265 -2.67112 -5
      vertex -2.85 -2 -2.5
      vertex -2.85 -2 -5
    endloop
  endfacet
  facet normal -0.978148 0.20791 0
    outer loop
      vertex -2.85 -2 -2.5
      vertex -2.99265 -2.67112 -5
      vertex -2.99265 -2.67112 -2.5
    endloop
  endfacet
  facet normal 0.913551 -0.406725 0
    outer loop
      vertex -6.11394 -1.65695 -2.5
      vertex -5.83488 -1.03015 -5
      vertex -5.83488 -1.03015 -2.5
    endloop
  endfacet
  facet normal 0.913551 -0.406725 0
    outer loop
      vertex -5.83488 -1.03015 -5
      vertex -6.11394 -1.65695 -2.5
      vertex -6.11394 -1.65695 -5
    endloop
  endfacet
  facet normal 0.309016 -0.951057 0
    outer loop
      vertex -5.325 -0.571059 -5
      vertex -4.67247 -0.35904 -2.5
      vertex -5.325 -0.571059 -2.5
    endloop
  endfacet
  facet normal 0.309016 -0.951057 0
    outer loop
      vertex -4.67247 -0.35904 -2.5
      vertex -5.325 -0.571059 -5
      vertex -4.67247 -0.35904 -5
    endloop
  endfacet
  facet normal 0.309017 0.951056 -0
    outer loop
      vertex -4.67247 -3.64096 -5
      vertex -5.325 -3.42894 -2.5
      vertex -4.67247 -3.64096 -2.5
    endloop
  endfacet
  facet normal 0.309017 0.951056 0
    outer loop
      vertex -5.325 -3.42894 -2.5
      vertex -4.67247 -3.64096 -5
      vertex -5.325 -3.42894 -5
    endloop
  endfacet
  facet normal -0.809078 -0.587702 0
    outer loop
      vertex 91.0073 -1.32889 -5
      vertex 90.6041 -0.773812 -2.5
      vertex 90.6041 -0.773812 -5
    endloop
  endfacet
  facet normal -0.809078 -0.587702 0
    outer loop
      vertex 90.6041 -0.773812 -2.5
      vertex 91.0073 -1.32889 -5
      vertex 91.0073 -1.32889 -2.5
    endloop
  endfacet
  facet normal -0.978132 -0.207983 0
    outer loop
      vertex 91.15 -2 -5
      vertex 91.0073 -1.32889 -2.5
      vertex 91.0073 -1.32889 -5
    endloop
  endfacet
  facet normal -0.978132 -0.207983 0
    outer loop
      vertex 91.0073 -1.32889 -2.5
      vertex 91.15 -2 -5
      vertex 91.15 -2 -2.5
    endloop
  endfacet
  facet normal -0.499993 -0.86603 0
    outer loop
      vertex 90.0099 -0.430757 -5
      vertex 90.6041 -0.773812 -2.5
      vertex 90.0099 -0.430757 -2.5
    endloop
  endfacet
  facet normal -0.499993 -0.86603 -0
    outer loop
      vertex 90.6041 -0.773812 -2.5
      vertex 90.0099 -0.430757 -5
      vertex 90.6041 -0.773812 -5
    endloop
  endfacet
  facet normal -0.10452 -0.994523 0
    outer loop
      vertex 89.3275 -0.35904 -5
      vertex 90.0099 -0.430757 -2.5
      vertex 89.3275 -0.35904 -2.5
    endloop
  endfacet
  facet normal -0.10452 -0.994523 -0
    outer loop
      vertex 90.0099 -0.430757 -2.5
      vertex 89.3275 -0.35904 -5
      vertex 90.0099 -0.430757 -5
    endloop
  endfacet
  facet normal 0.66911 0.743164 -0
    outer loop
      vertex 88.675 -3.42894 -5
      vertex 88.1651 -2.96985 -2.5
      vertex 88.675 -3.42894 -2.5
    endloop
  endfacet
  facet normal 0.66911 0.743164 0
    outer loop
      vertex 88.1651 -2.96985 -2.5
      vertex 88.675 -3.42894 -5
      vertex 88.1651 -2.96985 -5
    endloop
  endfacet
  facet normal 0.66911 -0.743163 0
    outer loop
      vertex 88.1651 -1.03015 -5
      vertex 88.675 -0.571059 -2.5
      vertex 88.1651 -1.03015 -2.5
    endloop
  endfacet
  facet normal 0.66911 -0.743163 0
    outer loop
      vertex 88.675 -0.571059 -2.5
      vertex 88.1651 -1.03015 -5
      vertex 88.675 -0.571059 -5
    endloop
  endfacet
  facet normal 0.913581 0.406658 0
    outer loop
      vertex 88.1651 -2.96985 -2.5
      vertex 87.8861 -2.34306 -5
      vertex 87.8861 -2.34306 -2.5
    endloop
  endfacet
  facet normal 0.913581 0.406658 0
    outer loop
      vertex 87.8861 -2.34306 -5
      vertex 88.1651 -2.96985 -2.5
      vertex 88.1651 -2.96985 -5
    endloop
  endfacet
  facet normal -0.809074 0.587707 0
    outer loop
      vertex 90.6041 -3.22619 -5
      vertex 91.0073 -2.67112 -2.5
      vertex 91.0073 -2.67112 -5
    endloop
  endfacet
  facet normal -0.809074 0.587707 0
    outer loop
      vertex 91.0073 -2.67112 -2.5
      vertex 90.6041 -3.22619 -5
      vertex 90.6041 -3.22619 -2.5
    endloop
  endfacet
  facet normal -0.499987 0.866033 0
    outer loop
      vertex 90.6041 -3.22619 -5
      vertex 90.0099 -3.56924 -2.5
      vertex 90.6041 -3.22619 -2.5
    endloop
  endfacet
  facet normal -0.499987 0.866033 0
    outer loop
      vertex 90.0099 -3.56924 -2.5
      vertex 90.6041 -3.22619 -5
      vertex 90.0099 -3.56924 -5
    endloop
  endfacet
  facet normal 1 -0 0
    outer loop
      vertex 87.8861 -2.34306 -2.5
      vertex 87.8861 -1.65695 -5
      vertex 87.8861 -1.65695 -2.5
    endloop
  endfacet
  facet normal 1 0 0
    outer loop
      vertex 87.8861 -1.65695 -5
      vertex 87.8861 -2.34306 -2.5
      vertex 87.8861 -2.34306 -5
    endloop
  endfacet
  facet normal -0.104524 0.994522 0
    outer loop
      vertex 90.0099 -3.56924 -5
      vertex 89.3275 -3.64096 -2.5
      vertex 90.0099 -3.56924 -2.5
    endloop
  endfacet
  facet normal -0.104524 0.994522 0
    outer loop
      vertex 89.3275 -3.64096 -2.5
      vertex 90.0099 -3.56924 -5
      vertex 89.3275 -3.64096 -5
    endloop
  endfacet
  facet normal -0.978133 0.20798 0
    outer loop
      vertex 91.0073 -2.67112 -5
      vertex 91.15 -2 -2.5
      vertex 91.15 -2 -5
    endloop
  endfacet
  facet normal -0.978133 0.20798 0
    outer loop
      vertex 91.15 -2 -2.5
      vertex 91.0073 -2.67112 -5
      vertex 91.0073 -2.67112 -2.5
    endloop
  endfacet
  facet normal 0.913583 -0.406652 0
    outer loop
      vertex 87.8861 -1.65695 -2.5
      vertex 88.1651 -1.03015 -5
      vertex 88.1651 -1.03015 -2.5
    endloop
  endfacet
  facet normal 0.913583 -0.406652 0
    outer loop
      vertex 88.1651 -1.03015 -5
      vertex 87.8861 -1.65695 -2.5
      vertex 87.8861 -1.65695 -5
    endloop
  endfacet
  facet normal 0.309029 -0.951053 0
    outer loop
      vertex 88.675 -0.571059 -5
      vertex 89.3275 -0.35904 -2.5
      vertex 88.675 -0.571059 -2.5
    endloop
  endfacet
  facet normal 0.309029 -0.951053 0
    outer loop
      vertex 89.3275 -0.35904 -2.5
      vertex 88.675 -0.571059 -5
      vertex 89.3275 -0.35904 -5
    endloop
  endfacet
  facet normal 0.30903 0.951052 -0
    outer loop
      vertex 89.3275 -3.64096 -5
      vertex 88.675 -3.42894 -2.5
      vertex 89.3275 -3.64096 -2.5
    endloop
  endfacet
  facet normal 0.30903 0.951052 0
    outer loop
      vertex 88.675 -3.42894 -2.5
      vertex 89.3275 -3.64096 -5
      vertex 88.675 -3.42894 -5
    endloop
  endfacet
  facet normal -0.809027 -0.587772 0
    outer loop
      vertex -2.99265 67.6711 -5
      vertex -3.39594 68.2262 -2.5
      vertex -3.39594 68.2262 -5
    endloop
  endfacet
  facet normal -0.809027 -0.587772 0
    outer loop
      vertex -3.39594 68.2262 -2.5
      vertex -2.99265 67.6711 -5
      vertex -2.99265 67.6711 -2.5
    endloop
  endfacet
  facet normal -0.978147 -0.207916 0
    outer loop
      vertex -2.85 67 -5
      vertex -2.99265 67.6711 -2.5
      vertex -2.99265 67.6711 -5
    endloop
  endfacet
  facet normal -0.978147 -0.207916 0
    outer loop
      vertex -2.99265 67.6711 -2.5
      vertex -2.85 67 -5
      vertex -2.85 67 -2.5
    endloop
  endfacet
  facet normal -0.499945 -0.866057 0
    outer loop
      vertex -3.99012 68.5692 -5
      vertex -3.39594 68.2262 -2.5
      vertex -3.99012 68.5692 -2.5
    endloop
  endfacet
  facet normal -0.499945 -0.866057 -0
    outer loop
      vertex -3.39594 68.2262 -2.5
      vertex -3.99012 68.5692 -5
      vertex -3.39594 68.2262 -5
    endloop
  endfacet
  facet normal -0.104647 -0.994509 0
    outer loop
      vertex -4.67247 68.641 -5
      vertex -3.99012 68.5692 -2.5
      vertex -4.67247 68.641 -2.5
    endloop
  endfacet
  facet normal -0.104647 -0.994509 -0
    outer loop
      vertex -3.99012 68.5692 -2.5
      vertex -4.67247 68.641 -5
      vertex -3.99012 68.5692 -5
    endloop
  endfacet
  facet normal 0.669132 0.743143 -0
    outer loop
      vertex -5.325 65.5711 -5
      vertex -5.83488 66.0302 -2.5
      vertex -5.325 65.5711 -2.5
    endloop
  endfacet
  facet normal 0.669132 0.743143 0
    outer loop
      vertex -5.83488 66.0302 -2.5
      vertex -5.325 65.5711 -5
      vertex -5.83488 66.0302 -5
    endloop
  endfacet
  facet normal 0.669132 -0.743143 0
    outer loop
      vertex -5.83488 67.9698 -5
      vertex -5.325 68.4289 -2.5
      vertex -5.83488 67.9698 -2.5
    endloop
  endfacet
  facet normal 0.669132 -0.743143 0
    outer loop
      vertex -5.325 68.4289 -2.5
      vertex -5.83488 67.9698 -5
      vertex -5.325 68.4289 -5
    endloop
  endfacet
  facet normal 0.913526 0.406779 0
    outer loop
      vertex -5.83488 66.0302 -2.5
      vertex -6.11394 66.6569 -5
      vertex -6.11394 66.6569 -2.5
    endloop
  endfacet
  facet normal 0.913526 0.406779 0
    outer loop
      vertex -6.11394 66.6569 -5
      vertex -5.83488 66.0302 -2.5
      vertex -5.83488 66.0302 -5
    endloop
  endfacet
  facet normal -0.809027 0.587772 0
    outer loop
      vertex -3.39594 65.7738 -5
      vertex -2.99265 66.3289 -2.5
      vertex -2.99265 66.3289 -5
    endloop
  endfacet
  facet normal -0.809027 0.587772 0
    outer loop
      vertex -2.99265 66.3289 -2.5
      vertex -3.39594 65.7738 -5
      vertex -3.39594 65.7738 -2.5
    endloop
  endfacet
  facet normal -0.499945 0.866057 0
    outer loop
      vertex -3.39594 65.7738 -5
      vertex -3.99012 65.4308 -2.5
      vertex -3.39594 65.7738 -2.5
    endloop
  endfacet
  facet normal -0.499945 0.866057 0
    outer loop
      vertex -3.99012 65.4308 -2.5
      vertex -3.39594 65.7738 -5
      vertex -3.99012 65.4308 -5
    endloop
  endfacet
  facet normal 1 -0 0
    outer loop
      vertex -6.11394 66.6569 -2.5
      vertex -6.11394 67.3431 -5
      vertex -6.11394 67.3431 -2.5
    endloop
  endfacet
  facet normal 1 0 0
    outer loop
      vertex -6.11394 67.3431 -5
      vertex -6.11394 66.6569 -2.5
      vertex -6.11394 66.6569 -5
    endloop
  endfacet
  facet normal -0.104647 0.994509 0
    outer loop
      vertex -3.99012 65.4308 -5
      vertex -4.67247 65.359 -2.5
      vertex -3.99012 65.4308 -2.5
    endloop
  endfacet
  facet normal -0.104647 0.994509 0
    outer loop
      vertex -4.67247 65.359 -2.5
      vertex -3.99012 65.4308 -5
      vertex -4.67247 65.359 -5
    endloop
  endfacet
  facet normal -0.978147 0.207916 0
    outer loop
      vertex -2.99265 66.3289 -5
      vertex -2.85 67 -2.5
      vertex -2.85 67 -5
    endloop
  endfacet
  facet normal -0.978147 0.207916 0
    outer loop
      vertex -2.85 67 -2.5
      vertex -2.99265 66.3289 -5
      vertex -2.99265 66.3289 -2.5
    endloop
  endfacet
  facet normal 0.913526 -0.406779 0
    outer loop
      vertex -6.11394 67.3431 -2.5
      vertex -5.83488 67.9698 -5
      vertex -5.83488 67.9698 -2.5
    endloop
  endfacet
  facet normal 0.913526 -0.406779 0
    outer loop
      vertex -5.83488 67.9698 -5
      vertex -6.11394 67.3431 -2.5
      vertex -6.11394 67.3431 -5
    endloop
  endfacet
  facet normal 0.309123 -0.951022 0
    outer loop
      vertex -5.325 68.4289 -5
      vertex -4.67247 68.641 -2.5
      vertex -5.325 68.4289 -2.5
    endloop
  endfacet
  facet normal 0.309123 -0.951022 0
    outer loop
      vertex -4.67247 68.641 -2.5
      vertex -5.325 68.4289 -5
      vertex -4.67247 68.641 -5
    endloop
  endfacet
  facet normal 0.309123 0.951022 -0
    outer loop
      vertex -4.67247 65.359 -5
      vertex -5.325 65.5711 -2.5
      vertex -4.67247 65.359 -2.5
    endloop
  endfacet
  facet normal 0.309123 0.951022 0
    outer loop
      vertex -5.325 65.5711 -2.5
      vertex -4.67247 65.359 -5
      vertex -5.325 65.5711 -5
    endloop
  endfacet
  facet normal -0.809089 -0.587686 0
    outer loop
      vertex 91.0073 67.6711 -5
      vertex 90.6041 68.2262 -2.5
      vertex 90.6041 68.2262 -5
    endloop
  endfacet
  facet normal -0.809089 -0.587686 0
    outer loop
      vertex 90.6041 68.2262 -2.5
      vertex 91.0073 67.6711 -5
      vertex 91.0073 67.6711 -2.5
    endloop
  endfacet
  facet normal -0.978132 -0.207986 0
    outer loop
      vertex 91.15 67 -5
      vertex 91.0073 67.6711 -2.5
      vertex 91.0073 67.6711 -5
    endloop
  endfacet
  facet normal -0.978132 -0.207986 0
    outer loop
      vertex 91.0073 67.6711 -2.5
      vertex 91.15 67 -5
      vertex 91.15 67 -2.5
    endloop
  endfacet
  facet normal -0.499933 -0.866064 0
    outer loop
      vertex 90.0099 68.5692 -5
      vertex 90.6041 68.2262 -2.5
      vertex 90.0099 68.5692 -2.5
    endloop
  endfacet
  facet normal -0.499933 -0.866064 -0
    outer loop
      vertex 90.6041 68.2262 -2.5
      vertex 90.0099 68.5692 -5
      vertex 90.6041 68.2262 -5
    endloop
  endfacet
  facet normal -0.104639 -0.99451 0
    outer loop
      vertex 89.3275 68.641 -5
      vertex 90.0099 68.5692 -2.5
      vertex 89.3275 68.641 -2.5
    endloop
  endfacet
  facet normal -0.104639 -0.99451 -0
    outer loop
      vertex 90.0099 68.5692 -2.5
      vertex 89.3275 68.641 -5
      vertex 90.0099 68.5692 -5
    endloop
  endfacet
  facet normal 0.669118 0.743156 -0
    outer loop
      vertex 88.675 65.5711 -5
      vertex 88.1651 66.0302 -2.5
      vertex 88.675 65.5711 -2.5
    endloop
  endfacet
  facet normal 0.669118 0.743156 0
    outer loop
      vertex 88.1651 66.0302 -2.5
      vertex 88.675 65.5711 -5
      vertex 88.1651 66.0302 -5
    endloop
  endfacet
  facet normal 0.669118 -0.743156 0
    outer loop
      vertex 88.1651 67.9698 -5
      vertex 88.675 68.4289 -2.5
      vertex 88.1651 67.9698 -2.5
    endloop
  endfacet
  facet normal 0.669118 -0.743156 0
    outer loop
      vertex 88.675 68.4289 -2.5
      vertex 88.1651 67.9698 -5
      vertex 88.675 68.4289 -5
    endloop
  endfacet
  facet normal 0.913559 0.406706 0
    outer loop
      vertex 88.1651 66.0302 -2.5
      vertex 87.8861 66.6569 -5
      vertex 87.8861 66.6569 -2.5
    endloop
  endfacet
  facet normal 0.913559 0.406706 0
    outer loop
      vertex 87.8861 66.6569 -5
      vertex 88.1651 66.0302 -2.5
      vertex 88.1651 66.0302 -5
    endloop
  endfacet
  facet normal -0.809089 0.587686 0
    outer loop
      vertex 90.6041 65.7738 -5
      vertex 91.0073 66.3289 -2.5
      vertex 91.0073 66.3289 -5
    endloop
  endfacet
  facet normal -0.809089 0.587686 0
    outer loop
      vertex 91.0073 66.3289 -2.5
      vertex 90.6041 65.7738 -5
      vertex 90.6041 65.7738 -2.5
    endloop
  endfacet
  facet normal -0.499933 0.866064 0
    outer loop
      vertex 90.6041 65.7738 -5
      vertex 90.0099 65.4308 -2.5
      vertex 90.6041 65.7738 -2.5
    endloop
  endfacet
  facet normal -0.499933 0.866064 0
    outer loop
      vertex 90.0099 65.4308 -2.5
      vertex 90.6041 65.7738 -5
      vertex 90.0099 65.4308 -5
    endloop
  endfacet
  facet normal 1 -0 0
    outer loop
      vertex 87.8861 66.6569 -2.5
      vertex 87.8861 67.3431 -5
      vertex 87.8861 67.3431 -2.5
    endloop
  endfacet
  facet normal 1 0 0
    outer loop
      vertex 87.8861 67.3431 -5
      vertex 87.8861 66.6569 -2.5
      vertex 87.8861 66.6569 -5
    endloop
  endfacet
  facet normal -0.104639 0.99451 0
    outer loop
      vertex 90.0099 65.4308 -5
      vertex 89.3275 65.359 -2.5
      vertex 90.0099 65.4308 -2.5
    endloop
  endfacet
  facet normal -0.104639 0.99451 0
    outer loop
      vertex 89.3275 65.359 -2.5
      vertex 90.0099 65.4308 -5
      vertex 89.3275 65.359 -5
    endloop
  endfacet
  facet normal -0.978132 0.207986 0
    outer loop
      vertex 91.0073 66.3289 -5
      vertex 91.15 67 -2.5
      vertex 91.15 67 -5
    endloop
  endfacet
  facet normal -0.978132 0.207986 0
    outer loop
      vertex 91.15 67 -2.5
      vertex 91.0073 66.3289 -5
      vertex 91.0073 66.3289 -2.5
    endloop
  endfacet
  facet normal 0.913559 -0.406706 0
    outer loop
      vertex 87.8861 67.3431 -2.5
      vertex 88.1651 67.9698 -5
      vertex 88.1651 67.9698 -2.5
    endloop
  endfacet
  facet normal 0.913559 -0.406706 0
    outer loop
      vertex 88.1651 67.9698 -5
      vertex 87.8861 67.3431 -2.5
      vertex 87.8861 67.3431 -5
    endloop
  endfacet
  facet normal 0.309136 -0.951018 0
    outer loop
      vertex 88.675 68.4289 -5
      vertex 89.3275 68.641 -2.5
      vertex 88.675 68.4289 -2.5
    endloop
  endfacet
  facet normal 0.309136 -0.951018 0
    outer loop
      vertex 89.3275 68.641 -2.5
      vertex 88.675 68.4289 -5
      vertex 89.3275 68.641 -5
    endloop
  endfacet
  facet normal 0.309136 0.951018 -0
    outer loop
      vertex 89.3275 65.359 -5
      vertex 88.675 65.5711 -2.5
      vertex 89.3275 65.359 -2.5
    endloop
  endfacet
  facet normal 0.309136 0.951018 0
    outer loop
      vertex 88.675 65.5711 -2.5
      vertex 89.3275 65.359 -5
      vertex 88.675 65.5711 -5
    endloop
  endfacet
  facet normal -0.669122 0.743153 0
    outer loop
      vertex -6 69.5981 -5
      vertex -6.92705 68.7634 -2.5
      vertex -6 69.5981 -2.5
    endloop
  endfacet
  facet normal -0.669122 0.743153 0
    outer loop
      vertex -6.92705 68.7634 -2.5
      vertex -6 69.5981 -5
      vertex -6.92705 68.7634 -5
    endloop
  endfacet
  facet normal 1 -0 0
    outer loop
      vertex 92.5 -2 -2.5
      vertex 92.5 67 -5
      vertex 92.5 67 -2.5
    endloop
  endfacet
  facet normal 1 0 0
    outer loop
      vertex 92.5 67 -5
      vertex 92.5 -2 -2.5
      vertex 92.5 -2 -5
    endloop
  endfacet
  facet normal 0.978141 0.207941 0
    outer loop
      vertex 92.5 67 -2.5
      vertex 92.2406 68.2202 -5
      vertex 92.2406 68.2202 -2.5
    endloop
  endfacet
  facet normal 0.978141 0.207941 0
    outer loop
      vertex 92.2406 68.2202 -5
      vertex 92.5 67 -2.5
      vertex 92.5 67 -5
    endloop
  endfacet
  facet normal 0.978142 -0.20794 0
    outer loop
      vertex 92.2406 -3.22021 -2.5
      vertex 92.5 -2 -5
      vertex 92.5 -2 -2.5
    endloop
  endfacet
  facet normal 0.978142 -0.20794 0
    outer loop
      vertex 92.5 -2 -5
      vertex 92.2406 -3.22021 -2.5
      vertex 92.2406 -3.22021 -5
    endloop
  endfacet
  facet normal 0.809033 -0.587764 0
    outer loop
      vertex 91.5074 -4.22943 -2.5
      vertex 92.2406 -3.22021 -5
      vertex 92.2406 -3.22021 -2.5
    endloop
  endfacet
  facet normal 0.809033 -0.587764 0
    outer loop
      vertex 92.2406 -3.22021 -5
      vertex 91.5074 -4.22943 -2.5
      vertex 91.5074 -4.22943 -5
    endloop
  endfacet
  facet normal 0.499982 -0.866036 0
    outer loop
      vertex 90.427 -4.85317 -5
      vertex 91.5074 -4.22943 -2.5
      vertex 90.427 -4.85317 -2.5
    endloop
  endfacet
  facet normal 0.499982 -0.866036 0
    outer loop
      vertex 91.5074 -4.22943 -2.5
      vertex 90.427 -4.85317 -5
      vertex 91.5074 -4.22943 -5
    endloop
  endfacet
  facet normal -0.309026 0.951054 0
    outer loop
      vertex -4.81359 69.9836 -5
      vertex -6 69.5981 -2.5
      vertex -4.81359 69.9836 -2.5
    endloop
  endfacet
  facet normal -0.309026 0.951054 0
    outer loop
      vertex -6 69.5981 -2.5
      vertex -4.81359 69.9836 -5
      vertex -6 69.5981 -5
    endloop
  endfacet
  facet normal 0.500018 0.866015 -0
    outer loop
      vertex 91.5074 69.2294 -5
      vertex 90.427 69.8532 -2.5
      vertex 91.5074 69.2294 -2.5
    endloop
  endfacet
  facet normal 0.500018 0.866015 0
    outer loop
      vertex 90.427 69.8532 -2.5
      vertex 91.5074 69.2294 -5
      vertex 90.427 69.8532 -5
    endloop
  endfacet
  facet normal 0 -1 0
    outer loop
      vertex -4.81359 -4.98357 -5
      vertex 89.1864 -4.98357 -2.5
      vertex -4.81359 -4.98357 -2.5
    endloop
  endfacet
  facet normal 0 -1 -0
    outer loop
      vertex 89.1864 -4.98357 -2.5
      vertex -4.81359 -4.98357 -5
      vertex 89.1864 -4.98357 -5
    endloop
  endfacet
  facet normal 0.104535 -0.994521 0
    outer loop
      vertex 89.1864 -4.98357 -5
      vertex 90.427 -4.85317 -2.5
      vertex 89.1864 -4.98357 -2.5
    endloop
  endfacet
  facet normal 0.104535 -0.994521 0
    outer loop
      vertex 90.427 -4.85317 -2.5
      vertex 89.1864 -4.98357 -5
      vertex 90.427 -4.85317 -5
    endloop
  endfacet
  facet normal -0.309018 -0.951056 0
    outer loop
      vertex -6 -4.59808 -5
      vertex -4.81359 -4.98357 -2.5
      vertex -6 -4.59808 -2.5
    endloop
  endfacet
  facet normal -0.309018 -0.951056 -0
    outer loop
      vertex -4.81359 -4.98357 -2.5
      vertex -6 -4.59808 -5
      vertex -4.81359 -4.98357 -5
    endloop
  endfacet
  facet normal 0.104535 0.994521 -0
    outer loop
      vertex 90.427 69.8532 -5
      vertex 89.1864 69.9836 -2.5
      vertex 90.427 69.8532 -2.5
    endloop
  endfacet
  facet normal 0.104535 0.994521 0
    outer loop
      vertex 89.1864 69.9836 -2.5
      vertex 90.427 69.8532 -5
      vertex 89.1864 69.9836 -5
    endloop
  endfacet
  facet normal -1 0 0
    outer loop
      vertex -7.43444 -2.62374 -5
      vertex -7.43444 67.6237 -2.5
      vertex -7.43444 67.6237 -5
    endloop
  endfacet
  facet normal -1 -0 0
    outer loop
      vertex -7.43444 67.6237 -2.5
      vertex -7.43444 -2.62374 -5
      vertex -7.43444 -2.62374 -2.5
    endloop
  endfacet
  facet normal 0.809027 0.587771 0
    outer loop
      vertex 92.2406 68.2202 -2.5
      vertex 91.5074 69.2294 -5
      vertex 91.5074 69.2294 -2.5
    endloop
  endfacet
  facet normal 0.809027 0.587771 0
    outer loop
      vertex 91.5074 69.2294 -5
      vertex 92.2406 68.2202 -2.5
      vertex 92.2406 68.2202 -5
    endloop
  endfacet
  facet normal -0.913546 -0.406736 0
    outer loop
      vertex -6.92705 -3.76336 -5
      vertex -7.43444 -2.62374 -2.5
      vertex -7.43444 -2.62374 -5
    endloop
  endfacet
  facet normal -0.913546 -0.406736 0
    outer loop
      vertex -7.43444 -2.62374 -2.5
      vertex -6.92705 -3.76336 -5
      vertex -6.92705 -3.76336 -2.5
    endloop
  endfacet
  facet normal 0 1 -0
    outer loop
      vertex 89.1864 69.9836 -5
      vertex -4.81359 69.9836 -2.5
      vertex 89.1864 69.9836 -2.5
    endloop
  endfacet
  facet normal 0 1 0
    outer loop
      vertex -4.81359 69.9836 -2.5
      vertex 89.1864 69.9836 -5
      vertex -4.81359 69.9836 -5
    endloop
  endfacet
  facet normal -0.913557 0.406712 0
    outer loop
      vertex -7.43444 67.6237 -5
      vertex -6.92705 68.7634 -2.5
      vertex -6.92705 68.7634 -5
    endloop
  endfacet
  facet normal -0.913557 0.406712 0
    outer loop
      vertex -6.92705 68.7634 -2.5
      vertex -7.43444 67.6237 -5
      vertex -7.43444 67.6237 -2.5
    endloop
  endfacet
  facet normal 0 0 -1
    outer loop
      vertex -2.99265 66.3289 -5
      vertex 88.1651 66.0302 -5
      vertex -2.99265 -1.32889 -5
    endloop
  endfacet
  facet normal 0 0 -1
    outer loop
      vertex 88.1651 66.0302 -5
      vertex -2.99265 66.3289 -5
      vertex -2.85 67 -5
    endloop
  endfacet
  facet normal 0 0 -1
    outer loop
      vertex -3.39594 -0.773812 -5
      vertex -2.99265 66.3289 -5
      vertex -2.99265 -1.32889 -5
    endloop
  endfacet
  facet normal 0 0 -1
    outer loop
      vertex -3.39594 -0.773812 -5
      vertex -3.39594 65.7738 -5
      vertex -2.99265 66.3289 -5
    endloop
  endfacet
  facet normal 0 0 -1
    outer loop
      vertex -3.99012 -0.430757 -5
      vertex -3.39594 65.7738 -5
      vertex -3.39594 -0.773812 -5
    endloop
  endfacet
  facet normal 0 0 -1
    outer loop
      vertex -3.99012 -0.430757 -5
      vertex -3.99012 65.4308 -5
      vertex -3.39594 65.7738 -5
    endloop
  endfacet
  facet normal 0 0 -1
    outer loop
      vertex -4.67247 -0.35904 -5
      vertex -3.99012 65.4308 -5
      vertex -3.99012 -0.430757 -5
    endloop
  endfacet
  facet normal 0 0 -1
    outer loop
      vertex -4.67247 -0.35904 -5
      vertex -4.67247 65.359 -5
      vertex -3.99012 65.4308 -5
    endloop
  endfacet
  facet normal 0 0 -1
    outer loop
      vertex -5.325 -0.571059 -5
      vertex -4.67247 65.359 -5
      vertex -4.67247 -0.35904 -5
    endloop
  endfacet
  facet normal 0 0 -1
    outer loop
      vertex -5.325 -0.571059 -5
      vertex -5.325 65.5711 -5
      vertex -4.67247 65.359 -5
    endloop
  endfacet
  facet normal 0 0 -1
    outer loop
      vertex -5.83488 -1.03015 -5
      vertex -5.325 65.5711 -5
      vertex -5.325 -0.571059 -5
    endloop
  endfacet
  facet normal 0 0 -1
    outer loop
      vertex -5.83488 -1.03015 -5
      vertex -5.83488 66.0302 -5
      vertex -5.325 65.5711 -5
    endloop
  endfacet
  facet normal 0 0 -1
    outer loop
      vertex -7.43444 -2.62374 -5
      vertex -5.83488 -1.03015 -5
      vertex -6.11394 -1.65695 -5
    endloop
  endfacet
  facet normal -0 0 -1
    outer loop
      vertex -5.83488 -1.03015 -5
      vertex -7.43444 -2.62374 -5
      vertex -5.83488 66.0302 -5
    endloop
  endfacet
  facet normal 0 0 -1
    outer loop
      vertex 92.5 -2 -5
      vertex 90.6041 -0.773812 -5
      vertex 92.5 67 -5
    endloop
  endfacet
  facet normal -0 0 -1
    outer loop
      vertex 92.5 67 -5
      vertex 91.0073 66.3289 -5
      vertex 91.15 67 -5
    endloop
  endfacet
  facet normal 0 0 -1
    outer loop
      vertex 90.6041 65.7738 -5
      vertex 92.5 67 -5
      vertex 90.6041 -0.773812 -5
    endloop
  endfacet
  facet normal 0 0 -1
    outer loop
      vertex 92.5 67 -5
      vertex 90.6041 65.7738 -5
      vertex 91.0073 66.3289 -5
    endloop
  endfacet
  facet normal 0 0 -1
    outer loop
      vertex 90.0099 -0.430757 -5
      vertex 90.6041 65.7738 -5
      vertex 90.6041 -0.773812 -5
    endloop
  endfacet
  facet normal 0 0 -1
    outer loop
      vertex 90.0099 -0.430757 -5
      vertex 90.0099 65.4308 -5
      vertex 90.6041 65.7738 -5
    endloop
  endfacet
  facet normal 0 0 -1
    outer loop
      vertex 89.3275 -0.35904 -5
      vertex 90.0099 65.4308 -5
      vertex 90.0099 -0.430757 -5
    endloop
  endfacet
  facet normal 0 0 -1
    outer loop
      vertex 89.3275 -0.35904 -5
      vertex 89.3275 65.359 -5
      vertex 90.0099 65.4308 -5
    endloop
  endfacet
  facet normal 0 0 -1
    outer loop
      vertex 88.675 -0.571059 -5
      vertex 89.3275 65.359 -5
      vertex 89.3275 -0.35904 -5
    endloop
  endfacet
  facet normal 0 0 -1
    outer loop
      vertex 88.675 -0.571059 -5
      vertex 88.675 65.5711 -5
      vertex 89.3275 65.359 -5
    endloop
  endfacet
  facet normal 0 0 -1
    outer loop
      vertex 88.1651 -1.03015 -5
      vertex 88.675 65.5711 -5
      vertex 88.675 -0.571059 -5
    endloop
  endfacet
  facet normal 0 0 -1
    outer loop
      vertex 88.1651 -1.03015 -5
      vertex 88.1651 66.0302 -5
      vertex 88.675 65.5711 -5
    endloop
  endfacet
  facet normal 0 0 -1
    outer loop
      vertex -2.99265 -1.32889 -5
      vertex 87.8861 -1.65695 -5
      vertex -2.85 -2 -5
    endloop
  endfacet
  facet normal 0 0 -1
    outer loop
      vertex 87.8861 -1.65695 -5
      vertex -2.99265 -1.32889 -5
      vertex 88.1651 -1.03015 -5
    endloop
  endfacet
  facet normal 0 0 -1
    outer loop
      vertex 91.15 -2 -5
      vertex 92.5 -2 -5
      vertex 92.2406 -3.22021 -5
    endloop
  endfacet
  facet normal 0 0 -1
    outer loop
      vertex 91.0073 -1.32889 -5
      vertex 92.5 -2 -5
      vertex 91.15 -2 -5
    endloop
  endfacet
  facet normal 0 0 -1
    outer loop
      vertex 91.0073 -2.67112 -5
      vertex 92.2406 -3.22021 -5
      vertex 91.5074 -4.22943 -5
    endloop
  endfacet
  facet normal 0 0 -1
    outer loop
      vertex 90.6041 -0.773812 -5
      vertex 92.5 -2 -5
      vertex 91.0073 -1.32889 -5
    endloop
  endfacet
  facet normal 0 0 -1
    outer loop
      vertex 92.5 67 -5
      vertex 91.15 67 -5
      vertex 92.2406 68.2202 -5
    endloop
  endfacet
  facet normal 0 0 -1
    outer loop
      vertex 92.2406 -3.22021 -5
      vertex 91.0073 -2.67112 -5
      vertex 91.15 -2 -5
    endloop
  endfacet
  facet normal 0 0 -1
    outer loop
      vertex 91.5074 -4.22943 -5
      vertex 90.6041 -3.22619 -5
      vertex 91.0073 -2.67112 -5
    endloop
  endfacet
  facet normal 0 0 -1
    outer loop
      vertex 90.427 -4.85317 -5
      vertex 90.6041 -3.22619 -5
      vertex 91.5074 -4.22943 -5
    endloop
  endfacet
  facet normal 0 0 -1
    outer loop
      vertex 90.427 -4.85317 -5
      vertex 90.0099 -3.56924 -5
      vertex 90.6041 -3.22619 -5
    endloop
  endfacet
  facet normal 0 0 -1
    outer loop
      vertex 90.427 -4.85317 -5
      vertex 89.3275 -3.64096 -5
      vertex 90.0099 -3.56924 -5
    endloop
  endfacet
  facet normal 0 0 -1
    outer loop
      vertex 89.1864 -4.98357 -5
      vertex 89.3275 -3.64096 -5
      vertex 90.427 -4.85317 -5
    endloop
  endfacet
  facet normal 0 0 -1
    outer loop
      vertex 89.1864 -4.98357 -5
      vertex 88.675 -3.42894 -5
      vertex 89.3275 -3.64096 -5
    endloop
  endfacet
  facet normal 0 0 -1
    outer loop
      vertex 89.1864 -4.98357 -5
      vertex 88.1651 -2.96985 -5
      vertex 88.675 -3.42894 -5
    endloop
  endfacet
  facet normal 0 0 -1
    outer loop
      vertex -2.85 -2 -5
      vertex 87.8861 -1.65695 -5
      vertex 87.8861 -2.34306 -5
    endloop
  endfacet
  facet normal -0 0 -1
    outer loop
      vertex 88.1651 -1.03015 -5
      vertex -2.99265 -1.32889 -5
      vertex 88.1651 66.0302 -5
    endloop
  endfacet
  facet normal 0 0 -1
    outer loop
      vertex 88.1651 66.0302 -5
      vertex -2.85 67 -5
      vertex 87.8861 66.6569 -5
    endloop
  endfacet
  facet normal 0 0 -1
    outer loop
      vertex -2.99265 -2.67112 -5
      vertex 87.8861 -2.34306 -5
      vertex 88.1651 -2.96985 -5
    endloop
  endfacet
  facet normal 0 0 -1
    outer loop
      vertex -2.99265 -2.67112 -5
      vertex 88.1651 -2.96985 -5
      vertex 89.1864 -4.98357 -5
    endloop
  endfacet
  facet normal -0 0 -1
    outer loop
      vertex 87.8861 -2.34306 -5
      vertex -2.99265 -2.67112 -5
      vertex -2.85 -2 -5
    endloop
  endfacet
  facet normal 0 0 -1
    outer loop
      vertex 89.1864 -4.98357 -5
      vertex -3.39594 -3.22619 -5
      vertex -2.99265 -2.67112 -5
    endloop
  endfacet
  facet normal 0 0 -1
    outer loop
      vertex -4.81359 -4.98357 -5
      vertex -3.39594 -3.22619 -5
      vertex 89.1864 -4.98357 -5
    endloop
  endfacet
  facet normal 0 0 -1
    outer loop
      vertex -3.39594 -3.22619 -5
      vertex -4.81359 -4.98357 -5
      vertex -3.99012 -3.56924 -5
    endloop
  endfacet
  facet normal 0 0 -1
    outer loop
      vertex -3.99012 -3.56924 -5
      vertex -4.81359 -4.98357 -5
      vertex -4.67247 -3.64096 -5
    endloop
  endfacet
  facet normal 0 0 -1
    outer loop
      vertex -4.81359 -4.98357 -5
      vertex -5.325 -3.42894 -5
      vertex -4.67247 -3.64096 -5
    endloop
  endfacet
  facet normal 0 0 -1
    outer loop
      vertex -6 -4.59808 -5
      vertex -5.325 -3.42894 -5
      vertex -4.81359 -4.98357 -5
    endloop
  endfacet
  facet normal -0 0 -1
    outer loop
      vertex -5.325 -3.42894 -5
      vertex -6 -4.59808 -5
      vertex -5.83488 -2.96985 -5
    endloop
  endfacet
  facet normal 0 0 -1
    outer loop
      vertex -6.92705 -3.76336 -5
      vertex -5.83488 -2.96985 -5
      vertex -6 -4.59808 -5
    endloop
  endfacet
  facet normal 0 0 -1
    outer loop
      vertex -7.43444 -2.62374 -5
      vertex -6.11394 -1.65695 -5
      vertex -6.11394 -2.34306 -5
    endloop
  endfacet
  facet normal 0 0 -1
    outer loop
      vertex -7.43444 67.6237 -5
      vertex -5.83488 66.0302 -5
      vertex -7.43444 -2.62374 -5
    endloop
  endfacet
  facet normal 0 0 -1
    outer loop
      vertex -7.43444 -2.62374 -5
      vertex -6.11394 -2.34306 -5
      vertex -6.92705 -3.76336 -5
    endloop
  endfacet
  facet normal -0 0 -1
    outer loop
      vertex -5.83488 -2.96985 -5
      vertex -6.92705 -3.76336 -5
      vertex -6.11394 -2.34306 -5
    endloop
  endfacet
  facet normal 0 0 -1
    outer loop
      vertex 91.0073 67.6711 -5
      vertex 92.2406 68.2202 -5
      vertex 91.15 67 -5
    endloop
  endfacet
  facet normal -0 0 -1
    outer loop
      vertex 92.2406 68.2202 -5
      vertex 91.0073 67.6711 -5
      vertex 91.5074 69.2294 -5
    endloop
  endfacet
  facet normal 0 0 -1
    outer loop
      vertex 90.6041 68.2262 -5
      vertex 91.5074 69.2294 -5
      vertex 91.0073 67.6711 -5
    endloop
  endfacet
  facet normal 0 0 -1
    outer loop
      vertex 90.6041 68.2262 -5
      vertex 90.427 69.8532 -5
      vertex 91.5074 69.2294 -5
    endloop
  endfacet
  facet normal 0 0 -1
    outer loop
      vertex 90.0099 68.5692 -5
      vertex 90.427 69.8532 -5
      vertex 90.6041 68.2262 -5
    endloop
  endfacet
  facet normal 0 0 -1
    outer loop
      vertex 89.3275 68.641 -5
      vertex 90.427 69.8532 -5
      vertex 90.0099 68.5692 -5
    endloop
  endfacet
  facet normal 0 0 -1
    outer loop
      vertex 89.3275 68.641 -5
      vertex 89.1864 69.9836 -5
      vertex 90.427 69.8532 -5
    endloop
  endfacet
  facet normal 0 0 -1
    outer loop
      vertex 88.675 68.4289 -5
      vertex 89.1864 69.9836 -5
      vertex 89.3275 68.641 -5
    endloop
  endfacet
  facet normal 0 0 -1
    outer loop
      vertex 88.1651 67.9698 -5
      vertex 89.1864 69.9836 -5
      vertex 88.675 68.4289 -5
    endloop
  endfacet
  facet normal 0 0 -1
    outer loop
      vertex 87.8861 66.6569 -5
      vertex -2.85 67 -5
      vertex 87.8861 67.3431 -5
    endloop
  endfacet
  facet normal 0 0 -1
    outer loop
      vertex -2.99265 67.6711 -5
      vertex 87.8861 67.3431 -5
      vertex -2.85 67 -5
    endloop
  endfacet
  facet normal 0 0 -1
    outer loop
      vertex 87.8861 67.3431 -5
      vertex -2.99265 67.6711 -5
      vertex 88.1651 67.9698 -5
    endloop
  endfacet
  facet normal -0 0 -1
    outer loop
      vertex 88.1651 67.9698 -5
      vertex -2.99265 67.6711 -5
      vertex 89.1864 69.9836 -5
    endloop
  endfacet
  facet normal 0 0 -1
    outer loop
      vertex -3.39594 68.2262 -5
      vertex 89.1864 69.9836 -5
      vertex -2.99265 67.6711 -5
    endloop
  endfacet
  facet normal 0 0 -1
    outer loop
      vertex -4.81359 69.9836 -5
      vertex -3.39594 68.2262 -5
      vertex -3.99012 68.5692 -5
    endloop
  endfacet
  facet normal 0 0 -1
    outer loop
      vertex -4.81359 69.9836 -5
      vertex -3.99012 68.5692 -5
      vertex -4.67247 68.641 -5
    endloop
  endfacet
  facet normal 0 0 -1
    outer loop
      vertex -3.39594 68.2262 -5
      vertex -4.81359 69.9836 -5
      vertex 89.1864 69.9836 -5
    endloop
  endfacet
  facet normal 0 0 -1
    outer loop
      vertex -5.325 68.4289 -5
      vertex -4.81359 69.9836 -5
      vertex -4.67247 68.641 -5
    endloop
  endfacet
  facet normal 0 0 -1
    outer loop
      vertex -6 69.5981 -5
      vertex -5.325 68.4289 -5
      vertex -5.83488 67.9698 -5
    endloop
  endfacet
  facet normal 0 0 -1
    outer loop
      vertex -5.325 68.4289 -5
      vertex -6 69.5981 -5
      vertex -4.81359 69.9836 -5
    endloop
  endfacet
  facet normal 0 0 -1
    outer loop
      vertex -6.92705 68.7634 -5
      vertex -5.83488 67.9698 -5
      vertex -6.11394 67.3431 -5
    endloop
  endfacet
  facet normal 0 0 -1
    outer loop
      vertex -5.83488 67.9698 -5
      vertex -6.92705 68.7634 -5
      vertex -6 69.5981 -5
    endloop
  endfacet
  facet normal 0 0 -1
    outer loop
      vertex -5.83488 66.0302 -5
      vertex -7.43444 67.6237 -5
      vertex -6.11394 66.6569 -5
    endloop
  endfacet
  facet normal 0 0 -1
    outer loop
      vertex -6.11394 66.6569 -5
      vertex -7.43444 67.6237 -5
      vertex -6.11394 67.3431 -5
    endloop
  endfacet
  facet normal 0 0 -1
    outer loop
      vertex -6.11394 67.3431 -5
      vertex -7.43444 67.6237 -5
      vertex -6.92705 68.7634 -5
    endloop
  endfacet
  facet normal -0.669131 -0.743145 0
    outer loop
      vertex -6.92705 -3.76336 -5
      vertex -6 -4.59808 -2.5
      vertex -6.92705 -3.76336 -2.5
    endloop
  endfacet
  facet normal -0.669131 -0.743145 -0
    outer loop
      vertex -6 -4.59808 -2.5
      vertex -6.92705 -3.76336 -5
      vertex -6 -4.59808 -5
    endloop
  endfacet
  facet normal 0 0 1
    outer loop
      vertex -2.99265 -1.32889 -2.5
      vertex 88.1651 -1.03015 -2.5
      vertex -2.99265 66.3289 -2.5
    endloop
  endfacet
  facet normal 0 0 1
    outer loop
      vertex 88.1651 -1.03015 -2.5
      vertex -2.99265 -1.32889 -2.5
      vertex -2.85 -2 -2.5
    endloop
  endfacet
  facet normal -0 0 1
    outer loop
      vertex -3.39594 65.7738 -2.5
      vertex -2.99265 -1.32889 -2.5
      vertex -2.99265 66.3289 -2.5
    endloop
  endfacet
  facet normal 0 0 1
    outer loop
      vertex -3.39594 65.7738 -2.5
      vertex -3.39594 -0.773812 -2.5
      vertex -2.99265 -1.32889 -2.5
    endloop
  endfacet
  facet normal -0 0 1
    outer loop
      vertex -3.99012 65.4308 -2.5
      vertex -3.39594 -0.773812 -2.5
      vertex -3.39594 65.7738 -2.5
    endloop
  endfacet
  facet normal 0 0 1
    outer loop
      vertex -3.99012 65.4308 -2.5
      vertex -3.99012 -0.430757 -2.5
      vertex -3.39594 -0.773812 -2.5
    endloop
  endfacet
  facet normal -0 0 1
    outer loop
      vertex -4.67247 65.359 -2.5
      vertex -3.99012 -0.430757 -2.5
      vertex -3.99012 65.4308 -2.5
    endloop
  endfacet
  facet normal 0 0 1
    outer loop
      vertex -4.67247 65.359 -2.5
      vertex -4.67247 -0.35904 -2.5
      vertex -3.99012 -0.430757 -2.5
    endloop
  endfacet
  facet normal 0 0 1
    outer loop
      vertex -5.325 65.5711 -2.5
      vertex -4.67247 -0.35904 -2.5
      vertex -4.67247 65.359 -2.5
    endloop
  endfacet
  facet normal 0 0 1
    outer loop
      vertex -5.325 65.5711 -2.5
      vertex -5.325 -0.571059 -2.5
      vertex -4.67247 -0.35904 -2.5
    endloop
  endfacet
  facet normal 0 0 1
    outer loop
      vertex -5.83488 66.0302 -2.5
      vertex -5.325 -0.571059 -2.5
      vertex -5.325 65.5711 -2.5
    endloop
  endfacet
  facet normal 0 0 1
    outer loop
      vertex -5.83488 66.0302 -2.5
      vertex -5.83488 -1.03015 -2.5
      vertex -5.325 -0.571059 -2.5
    endloop
  endfacet
  facet normal 0 0 1
    outer loop
      vertex -7.43444 67.6237 -2.5
      vertex -5.83488 66.0302 -2.5
      vertex -6.11394 66.6569 -2.5
    endloop
  endfacet
  facet normal 0 0 1
    outer loop
      vertex -5.83488 66.0302 -2.5
      vertex -7.43444 67.6237 -2.5
      vertex -5.83488 -1.03015 -2.5
    endloop
  endfacet
  facet normal 0 0 1
    outer loop
      vertex 92.5 67 -2.5
      vertex 90.6041 65.7738 -2.5
      vertex 92.5 -2 -2.5
    endloop
  endfacet
  facet normal 0 0 1
    outer loop
      vertex 92.5 -2 -2.5
      vertex 91.0073 -1.32889 -2.5
      vertex 91.15 -2 -2.5
    endloop
  endfacet
  facet normal -0 0 1
    outer loop
      vertex 90.6041 -0.773812 -2.5
      vertex 92.5 -2 -2.5
      vertex 90.6041 65.7738 -2.5
    endloop
  endfacet
  facet normal 0 0 1
    outer loop
      vertex 92.5 -2 -2.5
      vertex 90.6041 -0.773812 -2.5
      vertex 91.0073 -1.32889 -2.5
    endloop
  endfacet
  facet normal -0 0 1
    outer loop
      vertex 90.0099 65.4308 -2.5
      vertex 90.6041 -0.773812 -2.5
      vertex 90.6041 65.7738 -2.5
    endloop
  endfacet
  facet normal 0 0 1
    outer loop
      vertex 90.0099 65.4308 -2.5
      vertex 90.0099 -0.430757 -2.5
      vertex 90.6041 -0.773812 -2.5
    endloop
  endfacet
  facet normal -0 0 1
    outer loop
      vertex 89.3275 65.359 -2.5
      vertex 90.0099 -0.430757 -2.5
      vertex 90.0099 65.4308 -2.5
    endloop
  endfacet
  facet normal 0 0 1
    outer loop
      vertex 89.3275 65.359 -2.5
      vertex 89.3275 -0.35904 -2.5
      vertex 90.0099 -0.430757 -2.5
    endloop
  endfacet
  facet normal 0 0 1
    outer loop
      vertex 88.675 65.5711 -2.5
      vertex 89.3275 -0.35904 -2.5
      vertex 89.3275 65.359 -2.5
    endloop
  endfacet
  facet normal 0 0 1
    outer loop
      vertex 88.675 65.5711 -2.5
      vertex 88.675 -0.571059 -2.5
      vertex 89.3275 -0.35904 -2.5
    endloop
  endfacet
  facet normal 0 0 1
    outer loop
      vertex 88.1651 66.0302 -2.5
      vertex 88.675 -0.571059 -2.5
      vertex 88.675 65.5711 -2.5
    endloop
  endfacet
  facet normal 0 0 1
    outer loop
      vertex 88.1651 66.0302 -2.5
      vertex 88.1651 -1.03015 -2.5
      vertex 88.675 -0.571059 -2.5
    endloop
  endfacet
  facet normal 0 0 1
    outer loop
      vertex -2.99265 66.3289 -2.5
      vertex 87.8861 66.6569 -2.5
      vertex -2.85 67 -2.5
    endloop
  endfacet
  facet normal 0 0 1
    outer loop
      vertex 87.8861 66.6569 -2.5
      vertex -2.99265 66.3289 -2.5
      vertex 88.1651 66.0302 -2.5
    endloop
  endfacet
  facet normal 0 0 1
    outer loop
      vertex 91.15 67 -2.5
      vertex 92.5 67 -2.5
      vertex 92.2406 68.2202 -2.5
    endloop
  endfacet
  facet normal 0 0 1
    outer loop
      vertex 91.0073 66.3289 -2.5
      vertex 92.5 67 -2.5
      vertex 91.15 67 -2.5
    endloop
  endfacet
  facet normal 0 0 1
    outer loop
      vertex 91.0073 67.6711 -2.5
      vertex 92.2406 68.2202 -2.5
      vertex 91.5074 69.2294 -2.5
    endloop
  endfacet
  facet normal 0 0 1
    outer loop
      vertex 90.6041 65.7738 -2.5
      vertex 92.5 67 -2.5
      vertex 91.0073 66.3289 -2.5
    endloop
  endfacet
  facet normal 0 0 1
    outer loop
      vertex 92.5 -2 -2.5
      vertex 91.15 -2 -2.5
      vertex 92.2406 -3.22021 -2.5
    endloop
  endfacet
  facet normal 0 0 1
    outer loop
      vertex 92.2406 68.2202 -2.5
      vertex 91.0073 67.6711 -2.5
      vertex 91.15 67 -2.5
    endloop
  endfacet
  facet normal 0 0 1
    outer loop
      vertex 91.5074 69.2294 -2.5
      vertex 90.6041 68.2262 -2.5
      vertex 91.0073 67.6711 -2.5
    endloop
  endfacet
  facet normal 0 0 1
    outer loop
      vertex 90.427 69.8532 -2.5
      vertex 90.6041 68.2262 -2.5
      vertex 91.5074 69.2294 -2.5
    endloop
  endfacet
  facet normal 0 0 1
    outer loop
      vertex 90.427 69.8532 -2.5
      vertex 90.0099 68.5692 -2.5
      vertex 90.6041 68.2262 -2.5
    endloop
  endfacet
  facet normal 0 0 1
    outer loop
      vertex 90.427 69.8532 -2.5
      vertex 89.3275 68.641 -2.5
      vertex 90.0099 68.5692 -2.5
    endloop
  endfacet
  facet normal 0 0 1
    outer loop
      vertex 89.1864 69.9836 -2.5
      vertex 89.3275 68.641 -2.5
      vertex 90.427 69.8532 -2.5
    endloop
  endfacet
  facet normal 0 0 1
    outer loop
      vertex 89.1864 69.9836 -2.5
      vertex 88.675 68.4289 -2.5
      vertex 89.3275 68.641 -2.5
    endloop
  endfacet
  facet normal 0 0 1
    outer loop
      vertex 89.1864 69.9836 -2.5
      vertex 88.1651 67.9698 -2.5
      vertex 88.675 68.4289 -2.5
    endloop
  endfacet
  facet normal -0 0 1
    outer loop
      vertex -2.85 67 -2.5
      vertex 87.8861 66.6569 -2.5
      vertex 87.8861 67.3431 -2.5
    endloop
  endfacet
  facet normal 0 0 1
    outer loop
      vertex 88.1651 66.0302 -2.5
      vertex -2.99265 66.3289 -2.5
      vertex 88.1651 -1.03015 -2.5
    endloop
  endfacet
  facet normal 0 0 1
    outer loop
      vertex 88.1651 -1.03015 -2.5
      vertex -2.85 -2 -2.5
      vertex 87.8861 -1.65695 -2.5
    endloop
  endfacet
  facet normal -0 0 1
    outer loop
      vertex -2.99265 67.6711 -2.5
      vertex 87.8861 67.3431 -2.5
      vertex 88.1651 67.9698 -2.5
    endloop
  endfacet
  facet normal 0 0 1
    outer loop
      vertex -2.99265 67.6711 -2.5
      vertex 88.1651 67.9698 -2.5
      vertex 89.1864 69.9836 -2.5
    endloop
  endfacet
  facet normal 0 0 1
    outer loop
      vertex 87.8861 67.3431 -2.5
      vertex -2.99265 67.6711 -2.5
      vertex -2.85 67 -2.5
    endloop
  endfacet
  facet normal 0 0 1
    outer loop
      vertex 89.1864 69.9836 -2.5
      vertex -3.39594 68.2262 -2.5
      vertex -2.99265 67.6711 -2.5
    endloop
  endfacet
  facet normal -0 0 1
    outer loop
      vertex -4.81359 69.9836 -2.5
      vertex -3.39594 68.2262 -2.5
      vertex 89.1864 69.9836 -2.5
    endloop
  endfacet
  facet normal 0 0 1
    outer loop
      vertex -3.39594 68.2262 -2.5
      vertex -4.81359 69.9836 -2.5
      vertex -3.99012 68.5692 -2.5
    endloop
  endfacet
  facet normal 0 0 1
    outer loop
      vertex -3.99012 68.5692 -2.5
      vertex -4.81359 69.9836 -2.5
      vertex -4.67247 68.641 -2.5
    endloop
  endfacet
  facet normal 0 0 1
    outer loop
      vertex -4.81359 69.9836 -2.5
      vertex -5.325 68.4289 -2.5
      vertex -4.67247 68.641 -2.5
    endloop
  endfacet
  facet normal -0 0 1
    outer loop
      vertex -6 69.5981 -2.5
      vertex -5.325 68.4289 -2.5
      vertex -4.81359 69.9836 -2.5
    endloop
  endfacet
  facet normal 0 0 1
    outer loop
      vertex -5.325 68.4289 -2.5
      vertex -6 69.5981 -2.5
      vertex -5.83488 67.9698 -2.5
    endloop
  endfacet
  facet normal -0 0 1
    outer loop
      vertex -6.92705 68.7634 -2.5
      vertex -5.83488 67.9698 -2.5
      vertex -6 69.5981 -2.5
    endloop
  endfacet
  facet normal 0 0 1
    outer loop
      vertex -7.43444 67.6237 -2.5
      vertex -6.11394 66.6569 -2.5
      vertex -6.11394 67.3431 -2.5
    endloop
  endfacet
  facet normal 0 0 1
    outer loop
      vertex -7.43444 -2.62374 -2.5
      vertex -5.83488 -1.03015 -2.5
      vertex -7.43444 67.6237 -2.5
    endloop
  endfacet
  facet normal -0 0 1
    outer loop
      vertex -7.43444 67.6237 -2.5
      vertex -6.11394 67.3431 -2.5
      vertex -6.92705 68.7634 -2.5
    endloop
  endfacet
  facet normal 0 0 1
    outer loop
      vertex -5.83488 67.9698 -2.5
      vertex -6.92705 68.7634 -2.5
      vertex -6.11394 67.3431 -2.5
    endloop
  endfacet
  facet normal -0 0 1
    outer loop
      vertex 91.0073 -2.67112 -2.5
      vertex 92.2406 -3.22021 -2.5
      vertex 91.15 -2 -2.5
    endloop
  endfacet
  facet normal 0 0 1
    outer loop
      vertex 92.2406 -3.22021 -2.5
      vertex 91.0073 -2.67112 -2.5
      vertex 91.5074 -4.22943 -2.5
    endloop
  endfacet
  facet normal -0 0 1
    outer loop
      vertex 90.6041 -3.22619 -2.5
      vertex 91.5074 -4.22943 -2.5
      vertex 91.0073 -2.67112 -2.5
    endloop
  endfacet
  facet normal 0 0 1
    outer loop
      vertex 90.6041 -3.22619 -2.5
      vertex 90.427 -4.85317 -2.5
      vertex 91.5074 -4.22943 -2.5
    endloop
  endfacet
  facet normal -0 0 1
    outer loop
      vertex 90.0099 -3.56924 -2.5
      vertex 90.427 -4.85317 -2.5
      vertex 90.6041 -3.22619 -2.5
    endloop
  endfacet
  facet normal -0 0 1
    outer loop
      vertex 89.3275 -3.64096 -2.5
      vertex 90.427 -4.85317 -2.5
      vertex 90.0099 -3.56924 -2.5
    endloop
  endfacet
  facet normal 0 0 1
    outer loop
      vertex 89.3275 -3.64096 -2.5
      vertex 89.1864 -4.98357 -2.5
      vertex 90.427 -4.85317 -2.5
    endloop
  endfacet
  facet normal 0 0 1
    outer loop
      vertex 88.675 -3.42894 -2.5
      vertex 89.1864 -4.98357 -2.5
      vertex 89.3275 -3.64096 -2.5
    endloop
  endfacet
  facet normal 0 0 1
    outer loop
      vertex 88.1651 -2.96985 -2.5
      vertex 89.1864 -4.98357 -2.5
      vertex 88.675 -3.42894 -2.5
    endloop
  endfacet
  facet normal 0 0 1
    outer loop
      vertex 87.8861 -1.65695 -2.5
      vertex -2.85 -2 -2.5
      vertex 87.8861 -2.34306 -2.5
    endloop
  endfacet
  facet normal 0 0 1
    outer loop
      vertex -2.99265 -2.67112 -2.5
      vertex 87.8861 -2.34306 -2.5
      vertex -2.85 -2 -2.5
    endloop
  endfacet
  facet normal 0 0 1
    outer loop
      vertex 87.8861 -2.34306 -2.5
      vertex -2.99265 -2.67112 -2.5
      vertex 88.1651 -2.96985 -2.5
    endloop
  endfacet
  facet normal 0 0 1
    outer loop
      vertex 88.1651 -2.96985 -2.5
      vertex -2.99265 -2.67112 -2.5
      vertex 89.1864 -4.98357 -2.5
    endloop
  endfacet
  facet normal -0 0 1
    outer loop
      vertex -3.39594 -3.22619 -2.5
      vertex 89.1864 -4.98357 -2.5
      vertex -2.99265 -2.67112 -2.5
    endloop
  endfacet
  facet normal 0 0 1
    outer loop
      vertex -4.81359 -4.98357 -2.5
      vertex -3.39594 -3.22619 -2.5
      vertex -3.99012 -3.56924 -2.5
    endloop
  endfacet
  facet normal 0 0 1
    outer loop
      vertex -4.81359 -4.98357 -2.5
      vertex -3.99012 -3.56924 -2.5
      vertex -4.67247 -3.64096 -2.5
    endloop
  endfacet
  facet normal 0 0 1
    outer loop
      vertex -3.39594 -3.22619 -2.5
      vertex -4.81359 -4.98357 -2.5
      vertex 89.1864 -4.98357 -2.5
    endloop
  endfacet
  facet normal 0 0 1
    outer loop
      vertex -5.325 -3.42894 -2.5
      vertex -4.81359 -4.98357 -2.5
      vertex -4.67247 -3.64096 -2.5
    endloop
  endfacet
  facet normal 0 0 1
    outer loop
      vertex -6 -4.59808 -2.5
      vertex -5.325 -3.42894 -2.5
      vertex -5.83488 -2.96985 -2.5
    endloop
  endfacet
  facet normal 0 0 1
    outer loop
      vertex -5.325 -3.42894 -2.5
      vertex -6 -4.59808 -2.5
      vertex -4.81359 -4.98357 -2.5
    endloop
  endfacet
  facet normal 0 0 1
    outer loop
      vertex -6.92705 -3.76336 -2.5
      vertex -5.83488 -2.96985 -2.5
      vertex -6.11394 -2.34306 -2.5
    endloop
  endfacet
  facet normal 0 0 1
    outer loop
      vertex -5.83488 -2.96985 -2.5
      vertex -6.92705 -3.76336 -2.5
      vertex -6 -4.59808 -2.5
    endloop
  endfacet
  facet normal 0 0 1
    outer loop
      vertex -5.83488 -1.03015 -2.5
      vertex -7.43444 -2.62374 -2.5
      vertex -6.11394 -1.65695 -2.5
    endloop
  endfacet
  facet normal 0 0 1
    outer loop
      vertex -6.11394 -1.65695 -2.5
      vertex -7.43444 -2.62374 -2.5
      vertex -6.11394 -2.34306 -2.5
    endloop
  endfacet
  facet normal 0 0 1
    outer loop
      vertex -6.11394 -2.34306 -2.5
      vertex -7.43444 -2.62374 -2.5
      vertex -6.92705 -3.76336 -2.5
    endloop
  endfacet
endsolid OpenSCAD_Model
